<svg width="495" height="348" viewBox="0 0 495 348" fill="none" xmlns="http://www.w3.org/2000/svg">
<g filter="url(#filter0_d_1_2)">
<path d="M347.789 316H121.142C99.1555 315.985 78.0278 308.429 62.1818 294.915C46.3359 281.4 37.0003 262.975 36.1295 243.495C35.2587 224.016 42.9201 204.993 57.5099 190.409C72.0997 175.825 92.4867 166.81 114.403 165.252C117.528 145.685 127.494 127.478 142.898 113.194C158.302 98.91 178.369 89.2676 200.276 85.6232C222.183 81.9788 244.827 84.5158 265.023 92.8775C285.219 101.239 301.95 115.004 312.862 132.237C332.877 126.094 354.502 125.376 374.978 130.175C395.455 134.974 413.855 145.072 427.832 159.181C441.81 173.291 450.73 190.772 453.456 209.395C456.182 228.018 452.59 246.94 443.138 263.745C437.591 278.93 426.762 292.166 412.204 301.554C397.645 310.942 380.107 315.999 362.106 316H347.789Z" fill="url(#paint0_linear_1_2)"/>
<path d="M362.105 314.95C371.246 314.95 380.232 313.656 388.816 311.104C397.117 308.636 404.909 305.034 411.978 300.399C418.964 295.818 425.089 290.33 430.181 284.087C435.337 277.767 439.317 270.814 442.011 263.422L442.039 263.346L442.079 263.275C445.662 256.927 448.421 250.211 450.279 243.314C452.192 236.217 453.161 228.885 453.161 221.52C453.161 215.18 452.441 208.845 451.021 202.689C449.636 196.691 447.571 190.791 444.881 185.153C442.241 179.617 438.972 174.278 435.166 169.283C431.397 164.336 427.067 159.683 422.299 155.455C417.53 151.227 412.283 147.388 406.703 144.046C401.07 140.671 395.048 137.773 388.805 135.432C382.446 133.047 375.792 131.216 369.027 129.988C362.085 128.729 354.94 128.09 347.789 128.09C335.95 128.09 324.33 129.818 313.25 133.225L312.315 133.512L311.83 132.747C302.813 118.532 289.697 106.593 273.901 98.2222C265.912 93.9889 257.329 90.7175 248.391 88.499C239.169 86.2102 229.591 85.0498 219.922 85.0498C206.917 85.0498 194.221 87.1252 182.189 91.2183C170.565 95.1724 159.901 100.884 150.495 108.195C141.142 115.464 133.381 124.041 127.427 133.687C121.326 143.57 117.338 154.237 115.575 165.394L115.443 166.229L114.495 166.295C103.889 167.031 93.6846 169.507 84.1654 173.654C74.9159 177.684 66.6564 183.134 59.6164 189.853C45.1507 203.66 37.184 221.65 37.184 240.507C37.184 250.557 39.4036 260.306 43.7813 269.483C45.8854 273.894 48.4897 278.148 51.5219 282.128C54.5256 286.07 57.9751 289.777 61.7746 293.146C65.5742 296.515 69.755 299.573 74.201 302.237C78.6893 304.925 83.4873 307.234 88.4619 309.1C98.8118 312.982 109.807 314.95 121.141 314.95H347.789H362.105ZM362.105 315.999H347.789H121.141C74.1194 315.999 36 282.2 36 240.507C36 200.825 70.5297 168.293 114.403 165.248C121.66 119.333 166.137 84 219.922 84C259.824 84 294.603 103.445 312.862 132.233C323.804 128.868 335.556 127.04 347.789 127.04C406.639 127.04 454.345 169.341 454.345 221.52C454.345 236.696 450.309 251.038 443.138 263.745C432.085 294.068 399.984 315.999 362.105 315.999Z" fill="white" fill-opacity="0.8"/>
<path d="M119.317 28C126.056 27.9986 132.779 28.6793 139.382 30.0317C152.127 32.6553 164.228 37.77 174.99 45.0819C189.899 55.1802 201.811 69.1055 209.474 85.3942C217.136 101.683 220.267 119.734 218.536 137.649C216.805 155.565 210.277 172.683 199.638 187.207C188.999 201.73 174.642 213.121 158.075 220.182C152.052 222.74 145.791 224.692 139.382 226.011C125.484 228.827 111.146 228.651 97.3214 225.496C83.4972 222.34 70.5044 216.277 59.2088 207.71C47.9131 199.143 38.5738 188.27 31.813 175.813C25.0522 163.357 21.0251 149.604 20 135.47C30.8975 138.017 42.2174 138.18 53.1837 135.947C63.025 133.933 72.3731 130.002 80.6945 124.379C93.0641 116.034 102.747 104.284 108.569 90.5523C110.537 85.9013 112.038 81.067 113.052 76.1202C115.213 65.5219 115.133 54.5894 112.818 44.0238C111.652 38.74 109.929 33.5948 107.677 28.6745C111.541 28.2249 115.427 27.9997 119.317 28Z" fill="#713FFD"/>
<g filter="url(#filter1_d_1_2)">
<path d="M299.345 316H107.913C89.3426 315.986 71.4975 308.789 58.1136 295.915C44.7297 283.041 36.8447 265.489 36.1092 246.933C35.3737 228.377 41.8447 210.256 54.1676 196.364C66.4906 182.471 83.71 173.884 102.221 172.4C104.861 153.76 113.278 136.417 126.289 122.81C139.299 109.203 156.248 100.018 174.752 96.5464C193.255 93.0748 212.381 95.4916 229.439 103.457C246.497 111.422 260.628 124.535 269.845 140.95C286.75 135.098 305.015 134.414 322.31 138.986C339.605 143.557 355.146 153.176 366.952 166.617C378.757 180.057 386.292 196.71 388.594 214.45C390.896 232.19 387.862 250.214 379.879 266.223C375.194 280.688 366.047 293.296 353.751 302.239C341.455 311.182 326.641 316 311.437 316H299.345Z" fill="url(#paint1_linear_1_2)"/>
<path d="M311.437 315C319.157 315 326.748 313.767 333.998 311.336C341.009 308.985 347.59 305.554 353.56 301.139C359.462 296.775 364.635 291.547 368.936 285.6C373.29 279.58 376.652 272.957 378.928 265.915L378.951 265.843L378.985 265.775C382.011 259.728 384.341 253.33 385.911 246.761C387.526 240 388.345 233.015 388.345 225.999C388.345 219.96 387.737 213.925 386.537 208.062C385.368 202.348 383.623 196.728 381.352 191.357C379.121 186.084 376.361 180.997 373.146 176.24C369.962 171.527 366.306 167.095 362.278 163.067C358.25 159.039 353.819 155.383 349.106 152.199C344.348 148.984 339.261 146.224 333.988 143.993C328.617 141.722 322.997 139.977 317.283 138.808C311.42 137.608 305.385 136.999 299.345 136.999C289.346 136.999 279.531 138.645 270.172 141.891L269.383 142.165L268.973 141.436C261.357 127.894 250.279 116.522 236.937 108.548C230.189 104.515 222.94 101.399 215.391 99.2857C207.602 97.1054 199.512 96 191.345 96C180.361 96 169.638 97.977 159.475 101.876C149.657 105.643 140.65 111.084 132.705 118.048C124.806 124.972 118.251 133.142 113.221 142.331C108.069 151.745 104.701 161.907 103.211 172.535L103.1 173.33L102.299 173.393C93.3408 174.094 84.7219 176.453 76.6818 180.403C68.8694 184.242 61.8932 189.434 55.947 195.834C43.7289 208.987 37 226.123 37 244.087C37 253.66 38.8748 262.947 42.5723 271.689C44.3495 275.89 46.5492 279.943 49.1102 283.734C51.6472 287.489 54.5607 291.02 57.7699 294.23C60.9791 297.439 64.5104 300.352 68.2655 302.889C72.0565 305.45 76.109 307.65 80.3107 309.427C89.0525 313.125 98.3392 315 107.913 315H299.345H311.437ZM311.437 316H299.345H107.913C68.1966 316 36 283.803 36 244.087C36 206.286 65.1647 175.297 102.221 172.396C108.35 128.657 145.917 95 191.345 95C225.048 95 254.422 113.523 269.845 140.946C279.087 137.741 289.012 135.999 299.345 135.999C349.051 135.999 389.345 176.294 389.345 225.999C389.345 240.456 385.936 254.118 379.879 266.223C370.544 295.108 343.431 316 311.437 316Z" fill="white" fill-opacity="0.7"/>
</g>
</g>
<defs>
<filter id="filter0_d_1_2" x="0" y="1.52588e-05" width="494.345" height="348" filterUnits="userSpaceOnUse" color-interpolation-filters="sRGB">
<feFlood flood-opacity="0" result="BackgroundImageFix"/>
<feColorMatrix in="SourceAlpha" type="matrix" values="0 0 0 0 0 0 0 0 0 0 0 0 0 0 0 0 0 0 127 0" result="hardAlpha"/>
<feOffset dx="10" dy="2"/>
<feGaussianBlur stdDeviation="15"/>
<feColorMatrix type="matrix" values="0 0 0 0 0.61408 0 0 0 0 0.649242 0 0 0 0 0.679167 0 0 0 0.796 0"/>
<feBlend mode="normal" in2="BackgroundImageFix" result="effect1_dropShadow_1_2"/>
<feBlend mode="normal" in="SourceGraphic" in2="effect1_dropShadow_1_2" result="shape"/>
</filter>
<filter id="filter1_d_1_2" x="16" y="67" width="413.345" height="281" filterUnits="userSpaceOnUse" color-interpolation-filters="sRGB">
<feFlood flood-opacity="0" result="BackgroundImageFix"/>
<feColorMatrix in="SourceAlpha" type="matrix" values="0 0 0 0 0 0 0 0 0 0 0 0 0 0 0 0 0 0 127 0" result="hardAlpha"/>
<feOffset dx="10" dy="2"/>
<feGaussianBlur stdDeviation="15"/>
<feColorMatrix type="matrix" values="0 0 0 0 0.7375 0 0 0 0 0.731354 0 0 0 0 0.731354 0 0 0 0.502 0"/>
<feBlend mode="normal" in2="BackgroundImageFix" result="effect1_dropShadow_1_2"/>
<feBlend mode="normal" in="SourceGraphic" in2="effect1_dropShadow_1_2" result="shape"/>
</filter>
<linearGradient id="paint0_linear_1_2" x1="245.203" y1="84.0024" x2="343.823" y2="352.918" gradientUnits="userSpaceOnUse">
<stop stop-color="white" stop-opacity="0.604"/>
<stop offset="1" stop-color="white" stop-opacity="0.2"/>
</linearGradient>
<linearGradient id="paint1_linear_1_2" x1="212.698" y1="95.0025" x2="315.341" y2="343.166" gradientUnits="userSpaceOnUse">
<stop stop-color="white" stop-opacity="0.604"/>
<stop offset="1" stop-color="white" stop-opacity="0.2"/>
</linearGradient>
</defs>
</svg>
